<svg xmlns="http://www.w3.org/2000/svg" width="64" height="64" viewBox="0 0 64 64" fill="none">
  <defs>
    <mask id="cut">
      <rect width="64" height="64" fill="white" />
      <!-- Punch out a simple plug shape -->
      <path
        d="M28 22c0-1.1.9-2 2-2h4c1.1 0 2 .9 2 2v4h2c1.1 0 2 .9 2 2v6c0 3.9-3.1 7-7 7s-7-3.1-7-7v-6c0-1.1.9-2 2-2h2v-4zm4 6h4v6c0 1.1-.9 2-2 2s-2-.9-2-2v-6z"
        fill="black"
      />
    </mask>
  </defs>

  <!-- Shield -->
  <path
    d="M32 6l18 10v16c0 14.6-9.7 27.1-18 28-8.3-.9-18-13.4-18-28V16L32 6z"
    fill="#4cd7f6"
    mask="url(#cut)"
  />
</svg>
